# xmcd
#
# Track frame offsets: 
#        150
#        15872
#        32627
#        58747
#        84472
#        112342
#        134872
#        140765
#        162180
#        184550
#
# Disc length: 2879 seconds
#
# Revision: 3
# Processed by: cddbd v1.5.2PL0 Copyright (c) Steve Scherf et al.
# Submitted via: ExactAudioCopy v0.99pb4
#
DISCID=890b3d0a
DTITLE=Satriani, Joe - The Extremist
DYEAR=1992
DGENRE=Rock
TTITLE0=Friends
TTITLE1=The extremist
TTITLE2=War
TTITLE3=Cryin'
TTITLE4=Rubina's blue sky happiness
TTITLE5=Summer song
TTITLE6=Tears in the rain
TTITLE7=Why
TTITLE8=Motorcycle driver
TTITLE9=New blues
EXTD=YEAR: 1992
EXTT0=
EXTT1=
EXTT2=
EXTT3=
EXTT4=
EXTT5=
EXTT6=
EXTT7=
EXTT8=
EXTT9=
PLAYORDER=
